<svg xmlns="http://www.w3.org/2000/svg" viewBox="0 0 1024 1024">
  <path d="M887.466667 170.666667H123.733333c-4.266667 0-8.533333 4.266667-8.533333 8.533333v665.6c0 4.266667 4.266667 8.533333 8.533333 8.533333h763.733334c4.266667 0 8.533333-4.266667 8.533333-8.533333V179.2c0-4.266667-4.266667-8.533333-8.533333-8.533333zM170.666667 789.333333v-554.666666c0-4.266667 4.266667-8.533334 8.533333-8.533334H469.333333v162.133334c-55.466667 12.8-93.866667 64-93.866666 123.733333s42.666667 110.933333 93.866666 123.733333v162.133334H179.2c-4.266667 0-8.533333-4.266667-8.533333-8.533334z m332.8-341.333333c34.133333 0 64 29.866667 64 64s-29.866667 64-64 64-64-29.866667-64-64c-4.266667-34.133333 25.6-64 64-64z m337.066666 341.333333c0 4.266667-4.266667 8.533333-8.533333 8.533334h-298.666667v-162.133334c55.466667-12.8 93.866667-64 93.866667-123.733333s-42.666667-110.933333-93.866667-123.733333V226.133333h298.666667c4.266667 0 8.533333 4.266667 8.533333 8.533334v554.666666z" fill="currentColor"></path>
</svg>
