<svg xmlns="http://www.w3.org/2000/svg" viewBox="0 0 1024 1024">
  <path d="M136.533333 170.666667a8.533333 8.533333 0 0 0-8.533333 8.533333v532.864c0 4.693333 3.84 8.533333 8.533333 8.533333h750.933334a8.533333 8.533333 0 0 0 8.533333-8.533333V179.2a8.533333 8.533333 0 0 0-8.533333-8.533333H136.533333z m702.592 484.522666a8.533333 8.533333 0 0 1-8.533333 8.533334H193.408a8.533333 8.533333 0 0 1-8.533333-8.533334V236.074667c0-4.693333 3.84-8.533333 8.533333-8.533334h637.184c4.693333 0 8.533333 3.84 8.533333 8.533334v419.114666z m-673.194666 149.76c0-4.693333 3.84-8.533333 8.533333-8.533333H849.493333c4.693333 0 8.533333 3.84 8.533334 8.533333v39.850667a8.533333 8.533333 0 0 1-8.533334 8.533333H174.506667a8.533333 8.533333 0 0 1-8.533334-8.533333v-39.808z" fill="currentColor"></path>
  <path d="M288.981333 461.994667c0-4.693333 3.84-8.533333 8.533334-8.533334H332.8c4.693333 0 8.533333 3.84 8.533333 8.533334V631.466667a8.533333 8.533333 0 0 1-8.533333 8.533333h-35.285333a8.533333 8.533333 0 0 1-8.533334-8.533333v-169.472z m128-197.461334c0-4.693333 3.84-8.533333 8.533334-8.533333h35.285333c4.693333 0 8.533333 3.84 8.533333 8.533333v366.933334a8.533333 8.533333 0 0 1-8.533333 8.533333h-35.285333a8.533333 8.533333 0 0 1-8.533334-8.533333V264.533333z m256 65.834667c0-4.693333 3.84-8.533333 8.533334-8.533333h35.285333c4.693333 0 8.533333 3.84 8.533333 8.533333V631.466667a8.533333 8.533333 0 0 1-8.533333 8.533333h-35.285333a8.533333 8.533333 0 0 1-8.533334-8.533333V330.368z m-128 197.461333c0-4.693333 3.84-8.533333 8.533334-8.533333h35.285333c4.693333 0 8.533333 3.84 8.533333 8.533333V631.466667a8.533333 8.533333 0 0 1-8.533333 8.533333h-35.285333a8.533333 8.533333 0 0 1-8.533334-8.533333V527.786667z" fill="currentColor"></path>
</svg>
